<svg id="Слой_1" data-name="Слой 1" xmlns="http://www.w3.org/2000/svg" viewBox="0 0 1920 1079.94"><defs><style>.cls-1{fill:#ffe6f6;}.cls-2{fill:#ffafcc;}</style></defs><title>bg2</title><rect class="cls-1" x="-0.32" y="-0.02" width="1920" height="1080"/><path class="cls-2" d="M173.37,531.27c3.13,2.06,5.34,4.28,8.87,5.8,3,1.27,5.91,2.89,9.08,3.6,8.44,1.87,14.33-4,20.19-9.09,3.4-3,8.18-9.19,12.8-5.59,3,2.36,5.45,4.33,9.05,5.77,3.35,1.34,6.79,2.18,10,3.76,15.46,7.59,34.22-.91,48.23-8.34,3.26-1.73,6.46-3.58,9.64-5.45.46-.27,1.73-.75,2-1.19,1.37-2-2.3.32-2-.45-.33.83,4.89,3.39,5.37,3.6,6.88,2.92,15.07,2.48,22.41,3,8.9.6,17.66.53,26.37-1.58,3.85-.93,7.64-2.17,11.55-2.88,1.12-.2,3.73-.61,4.24-.36.8.4,1.73,2.25,2.55,3.06a17.89,17.89,0,0,0,4.51,3.21c4.41,2.2,9.28,2.23,14,1.4a67.82,67.82,0,0,0,11.15-3.27c3.7-1.32,7.28-3.59,11-4.74,5.34-1.66,11.27,3.17,16.28,4.48,8,2.09,16.68,2.16,24.93,2.54a134.47,134.47,0,0,0,25.53-.93,91.1,91.1,0,0,0,10.58-2.44c4.07-1.08,6.78.78,10.6,2.22,15.93,6,34.71,7.56,51.56,5.39a55,55,0,0,0,10.31-2.24c3.25-1.07,5.86-2.82,9.3-2.08,4.17.89,8,2.19,12.27,2.5a118.28,118.28,0,0,0,13.18-.05,113.48,113.48,0,0,0,25.87-4.3c3.6-1,7.15-2.14,10.7-3.31,1.83-.6,4-1.95,5.84-2.26-2.3.38.72,1,2,1.6,14.18,6.45,31.52,4.53,46.46,2.47C698,524,707,521.87,715.3,522.76c3.21.35,6,1.87,9.23,2.52,4.53.91,9.15,1.34,13.69,2.21,8,1.51,15.46,3,23.08-.69,2.72-1.34,3.27-2.12,6.29-1.42,3.65.84,7.26,2.27,10.83,3.41,7.37,2.35,14.59,3.36,21.36-1.26,1.68-1.15,4.5-3.75,5.64-4.29a32.43,32.43,0,0,1,9.21-2.41c2.91-.4,5.13.68,8,1.31,3.79.84,7.52,2,11.32,2.81a80.7,80.7,0,0,0,24.23.75c8.8-.87,17.49-2.48,26.26-3.52,7.69-.91,14.48-1.76,21.92.81,6.93,2.38,12.24,5.52,19.91,4.82,9-.82,17.56-3.86,26.48-4.72,7.28-.71,13.86,3.37,21.26,2.86,8-.54,15.17-4.15,23-5,4.48-.51,9,5.16,14.19,6.56,8.08,2.19,17.15-.62,25.11-2.2,4.08-.82,8.13-1.86,12.23-2.54,2.21-.37,4.44-.59,6.63-1.06.65-.15,1.38-.3,2-.51,1.19-.39,2,.22-.12-.25l-4-2.32.81.69-2.32-4c.08-1.27.13-.92.14,1a7.88,7.88,0,0,1-.45,2.72,29.39,29.39,0,0,1-1.52,4.56c-1.69,4.18-2.62,7.76-.49,12.13a23.45,23.45,0,0,0,7.55,8.79c2.12,1.41,7,2.51,8.09,3.72l-2.32-4-.11-1.16,1.23-4.54c.8-1.69.94-.91-.81,0-1.21.61-2.47,1.09-3.66,1.73a35.67,35.67,0,0,0-10.3,8.25c-6,7.14-8,16.34-4.58,25.2.68,1.78,2,4.81,3.65,5.86s-.44,1.24.77-.3V578a11.53,11.53,0,0,1-1.07,1.75c-2.74,3.7-7,6.25-10.16,9.62-5.89,6.33-12.12,16-9,24.89.87,2.48,2.41,4,3.88,6.16.1.15,2.23,3.71,1.82,3.69.39,0,.17-2.67.66-2.5-.17-.06-.86,1-1.07,1.07a46.84,46.84,0,0,0-5.08,3.4c-7.28,4.87-11.49,12.09-6.78,20.56a34.23,34.23,0,0,0,6.87,8.17c2.07,1.92,5.34,6.11,7.86,7.09l.15.12q1.86,1.54,1-4.17a27.26,27.26,0,0,0-2.27,2,22.92,22.92,0,0,0-3.8,4.6,27.43,27.43,0,0,0-4,13.31c0,5.46,2,10.39,4.08,15.32.31.76.63,1.51,1,2.26.38.92.76,1.83,1.16,2.74q.75,2.07.49-2s-2.42,4.68-2.71,5.34c-2.65,6-.45,11.74,4.91,15.16a35.65,35.65,0,0,0,4.74,2.39l1.88.83,2.15.91q3.5,1.66-1.45-2.63v-4.79c.57-2.36,1.65-2.3-1.06-.81-1.62.89-3.21,1.79-4.78,2.77-3.61,2.27-7.33,4.68-10.09,8a16.58,16.58,0,0,0-4.14,12,15.79,15.79,0,0,0,2.68,7.64,17.44,17.44,0,0,0,2.31,2.82c.68.66,2.56,3.05,1.57,1.16l-1.23-4.54-.06.92,1.23-4.54c-1.08,2.15-8.28,4.65-10.89,6.33-5.14,3.32-10.16,7.67-10.82,14.14-.63,6.09,2.65,11.36,7.35,15,2.49,1.92,8.72,4,9.67,6.28l-1.23-4.54c-.1-1.72-.24.29-.58,1.3a15.23,15.23,0,0,0-.82,4.29c-.07,3.86,2,7.21,4.48,9.95a35.35,35.35,0,0,0,7.37,5.92c1.33.83,2.74,1.51,4.11,2.27.68.36,1.36.74,2,1.14,1.54,1.13,1.21,0-1-3.45l1.23-4.54c.71-1.57,1.93-1.26-.36-.31-1.08.44-2.33,1-3.82,1.65a19.5,19.5,0,0,0-7,5c-6,7-2.49,14.68,2.06,21.14.24.34,2.42,4.16,2.53,4.15-.68,0,1.09-5.08-1,.73a16.61,16.61,0,0,0-.57,9.79c1.93,7.89,8.41,11.74,16.29,10.29,7.45-1.38,8.92-13.16,2.15-16.45-8.07-3.93-16.31-7.49-24.52-11.11-7-3.08-13.85-6.95-21.23-9-8.73-2.42-15.41-.28-23.11,3.89-3.39,1.84-6.7,3.81-10,5.7-1.4.79-2.83,1.53-4.2,2.37s-3.61,3-5.08,3.19c-2.77.28-9.61-5.94-11.92-7.59-5.51-4-10-8.48-17.08-9.29-5.89-.69-12,.9-17.7,2.24-6.29,1.49-12.61,2.85-18.94,4.19-8.15,1.72-16.31,3.51-24.65,3.85-3.39.15-6.69.63-10.07.09-3.59-.57-7-1.91-10.61-2.34-6.75-.8-11.54,3.38-16.16,7.66-3.06,2.82-5.92,6.13-10.38,5.44-8.43-1.32-15.72-4.36-24.48-3.53-7.46.71-14.58,2.71-21.93.35-3.52-1.14-6.84-2.64-10.63-2.64-4.49,0-8.64,1.72-12.6,3.65-2.37,1.15-4.71,2.37-7.13,3.4-1,.42-2,.74-3,1.16-.22.1-1.46.27-1.57.45.71-1.15,2.62,2,3.24,1.1s-17.64-11.45-19.68-12.4c-7.73-3.64-15.46-3.6-23.56-1.12-6.94,2.12-13.57,4.34-20.91,4.41s-13.78-2.56-21.06-.61A35.2,35.2,0,0,0,653,827c-2.45,1.53-3.82,2.73-6.66,2.16-8.38-1.66-15.85-5.09-24.59-5-8.27.14-16.41,2.27-24.64,3a114.29,114.29,0,0,1-24.18-.23c-8.5-1.08-16.68-2.49-25.28-2.14-8.28.34-16.45.91-24.73.23-8.67-.71-16.84-2.66-25.59-1.55-8.12,1-15.64,4-23.54,5.95-3.45.87-7.36,1.85-11,1.48s-7.39-2-11-3c-8.08-2.13-16.32-4.09-24.69-2.8-7.11,1.08-13.9,3.75-21.14,4-7.62.3-14.91-2-22.41-3-4.23-.59-8.55-.26-12.75-.85-3.48-.49-6.62-2.43-10-3.3-8.22-2.11-16.93-2.24-25.36-2.16-7.66.07-15.63.43-22.79,3.34-5.33,2.17-11.4,7.7-17.38,6.93-8-1-15.79-3.94-23.82-5.11-8.24-1.21-16.65-.91-24.81-2.56C239,820.8,231,819.07,223.08,820c-8.43,1-16.8,3.09-25.16,4.56-3.84.67-7.69,1.36-11.48,2.28s-7.27,2.72-11.09,3.28l8.75,2.32,1,1.8V839c-.39,1.76.31.21,1.29-.59.74-.61,2.18-1.66,3.21-2.51,3.26-2.71,6.54-5.69,8.57-9.46,5.17-9.58-1.92-17.74-9.53-23-1-.7-.79-1.82-.64,0a9.72,9.72,0,0,1,.41-2.42c.49-2.45,1-4.89,1.35-7.36a62.93,62.93,0,0,0,.74-15.8c-.54-5-2.16-9.53-3.63-14.28-1.36-4.4-1.43-7,.72-11.16,1.64-3.21,3.29-6.88,5.5-9.74,2.5-3.23,5.81-5.69,8.2-9.07,5.19-7.36,3.44-15.29-1.14-22.39-.65-1-2.8-3.33-2.77-4.53,0-.53.17.13.19,0,.26-1.28,2.08-3.08,2.81-4.15a27.11,27.11,0,0,0,2.89-5.25c1.2-3,2.76-10.64-.66-12.93-1.34-.89-1.42,3.27,0,1.86a8.41,8.41,0,0,0,1-1.86,25.15,25.15,0,0,0,2.69-9.08c.51-5.28-1-10.25-2.43-15.26.14.5-.91-3.08-.87-3.09s-2.32,4.14.93,1.13c1.66-1.54,3.47-2.91,5.15-4.44,3.9-3.55,7.51-8.2,7.62-13.72.12-5.71-3.19-8.41-6-12.83l1.23,4.54q-1.09,1.44.36-.73l.79-1.23a42.75,42.75,0,0,0,2.21-4.38,33,33,0,0,0,3-11.47,15.5,15.5,0,0,0-2.78-10.28,19.59,19.59,0,0,0-3.27-3.65c-.61-.54-1.24-1-1.88-1.55-1.39-1.34-1.44-1.09-.14.77v4.79c.63-2.49,2.19-4.54,2.26-7.28a13.22,13.22,0,0,0-3.46-9.12c-3.17-3.49-7.37-4.91-11.54-6.8-4.42-2-5.82-4.9-7.19-9.6-.59-2,0-2.94-1.13-1.36a30.67,30.67,0,0,1,3.88-3.67c7.8-7.39,8.14-17.18-1.27-23.44-2-1.32-4.17-2.21-6.26-3.33-.22-.11-2.47-1-1.34-.81.87.17-.51,1.17.38.93,1.53-.42,2.38-8,2.39-9a38.22,38.22,0,0,0-1.75-10.1c-3-11.19-20.32-6.45-17.36,4.78.54,2.06,1.3,3.85.85,5.93-.61,2.78-2.13,4.75-2.28,7.7-.28,5.4,2.51,10.5,6.64,13.86a27.16,27.16,0,0,0,5.27,3.18,17.65,17.65,0,0,0,3.19,1.66c1.42.33,1.3,2.45.42-2-.65-3.29.57-4.16-1.6-2.1-1.29,1.22-2.69,2.34-3.89,3.66-7.39,8.1-4.45,18.32-.2,27.35a24,24,0,0,0,10.39,11c2.22,1.18,7.94,2.38,9,4.45l-1.23-4.54c-.09-1.89-.58,1-.83,1.69a11.86,11.86,0,0,0-1,4.51,11.49,11.49,0,0,0,1.85,6.14c1.37,2.13,3.27,3.33,5.12,5l.61.52c1.36,1.47,1.44,1.45.23-.08a23.73,23.73,0,0,1-.94,3.78c-1.77,4.64-5.59,8.2-5.68,13.46a12.34,12.34,0,0,0,2,6.9c-.06-.1,2.3,3.29,2.77,3.22.46.6.56.62.29.07.32-1.88.22-2.48-.29-1.78-.43-.19-8.32,7.48-9,8.18-4.36,4.73-5.23,10.14-3.63,16.24,1,3.74,3.49,8.27,2.05,12.18-2,5.5-5.33,9.4-2.6,15.54,1.82,4.09,1.07-.49,1.16-.46s3.39-3.1-.5,1a33.19,33.19,0,0,0-3.19,4.67c-2.73,4.24-4.26,8.94-3.25,14,.86,4.28,3.32,7.71,5.57,11.34-.07-.1,2,3.75,1.51,1.77-.27-1.16.54-.59-.49.49s-1.81,2-2.74,2.89a62,62,0,0,0-14.79,24.2c-3.64,11.69,4.12,21.28,3.91,32.72s-6.5,22.61,2.67,32.2a62.38,62.38,0,0,0,5.2,4.38,29.58,29.58,0,0,0,2.22,2l-.46-4.11a2,2,0,0,1-.66.83c-1.71,1.13-3.25,3.09-4.84,4.44,1-.82-.39.33-.49.41-1.18.94-2.46,1.82-3.6,2.82-3.6,3.18-6.14,7.67-5,12.6,1.47,6.58,7.6,9.78,14,8.21,4.65-1.13,9-3,13.78-4,5.7-1.17,11.45-2,17.17-3.1,4.84-.91,9.65-2.41,14.61-2.44,5.52,0,10.82,1.32,16.22,2.33,10.88,2.06,21.93,1.64,32.8,4s21,6.34,31.82,1.46c4.06-1.84,7.76-4.58,12-6,4.65-1.61,9.78-1.61,14.64-1.67a121.45,121.45,0,0,1,16.07.51c5.2.63,9.55,3,14.53,4.2s10.18.54,15.22,1.19c6,.77,11.89,2.44,17.94,3.14C409.08,848,418.79,845,429,843c9.81-2,19.6,3.55,29.06,5.28,11.43,2.09,22.58-2.13,33.4-5.24,11.21-3.23,21.06-.76,32.4.07,11.52.85,23.08-1.28,34.56-.16,11,1.07,21.43,3.16,32.52,2.65,5.48-.26,10.94-.81,16.37-1.58,5.7-.81,11.38-2.13,17.18-1.77,10.92.66,20.59,8.11,31.64,3.47,3.6-1.51,6.76-4.35,10.27-5.66,4.23-1.59,9.15.43,13.46.83,10.48,1,20.32-2.33,30.2-5.17,4-1.13,7.09-1.45,10.8.53a116.57,116.57,0,0,1,13.81,8.36c3.65,2.68,6.56,4.51,11.31,4.24s8.95-2.44,13.14-4.32c2.76-1.25,6.56-4.24,9.66-4.15,1.65,0,3.52,1.22,5.1,1.75a42,42,0,0,0,9.42,2c10.64,1,20.47-3.09,31.11-.35,10.32,2.65,19.14,4,28.13-2.88,2.55-1.95,4.9-4.13,7.27-6.29,0,0,2.9-2.41,2.92-2.29.49,2.46-4.61-.61-1.27.89a21.44,21.44,0,0,0,4.21,1c11.2,2.45,22.73,1.11,33.93-.88,9.73-1.74,19.47-3.76,29.09-6.07A98.8,98.8,0,0,1,929.46,825c2.85-.37,3.4-.19,5.29,1.21,7.15,5.29,15.15,13.06,24,15.27C969,844,978,836,986.31,831.26c3.22-1.84,7.62-5.48,11.38-5.8,4.44-.37,10.11,3.22,14,5,10.2,4.77,20.64,9,30.77,13.93l2.15-16.45q4.71-.26,6,3c-.24-1.09-.25-1,0,.22,0-.78,0-.76-.06.07.34-.85.69-1.7,1.06-2.54,1.79-4.81.9-8.86-1.37-13.33a32,32,0,0,0-2.53-4.16c-.46-.65-2.21-3.94-2.87-4.12a6.75,6.75,0,0,0-1.23,3.83c-.29.15,0,0,.76-.42,1.29-.19,2.56-1.14,3.73-1.65,6.82-2.95,12.84-9.46,8.61-17.27-2-3.68-5.76-5.91-9.3-7.86-2.65-1.46-6.14-2.87-7.48-5.76l1.23,4.54c-.15.24-.3.48-.44.73l.9-2.15a12.82,12.82,0,0,0,.88-4.23,13.19,13.19,0,0,0-3.73-9.1c-2.54-2.68-8.16-6.79-11.82-7.75-1.22-1.47-1.54-.59-1,2.62l.42-.45c.63-.08,3-2.14,3.56-2.45,2.74-1.65,5.66-3,8.4-4.65,5.66-3.43,10.72-9.18,8.06-16.21a11.68,11.68,0,0,0-2.36-3.83,23.67,23.67,0,0,0-2.75-2.25l.33.45c-.23.3.22,1.92-.09,1.74s2.62-2.24,2.5-2.15c4.16-3.09,9.39-4.82,13.22-8.33,4.81-4.42,6-11.78,1.06-16.69-2-2-4.54-2.89-7.07-4-.8-.34-1.59-.71-2.37-1.09-1.49-.7-3.65-2.9-1.55.06l1.23,4.54-.1-1.35-1.23,4.54c1.77-4.17,4.77-8,4.86-12.7.08-4.45-2.64-8.79-4.29-12.8-1.33-3.21-2.8-6.34-1.43-9.74s5.22-5.37,7-8.84c4.61-8.94-2.65-16.27-8.84-21.75-1.84-1.63-4.09-4.76-6.22-5.82-4.58-2.28.23-.89-.57-.64-.26.08-.41,4.92-1.54,4.38.39.19,4.49-3,5-3.3,7.68-5.2,13-11.78,9.93-21.51a26.53,26.53,0,0,0-2.86-6.1,25.33,25.33,0,0,0-2.27-3c-.7-.79-.53-1.48-.64-.52-.17,1.49,1.72-1.93,1.86-2.18a26,26,0,0,1,4.21-5.25c6.5-6.47,16.08-12.73,14.92-23.26-.78-7-9.58-11.38-3.27-18,5.16-5.39,14.79-5.93,17-14.1,1.51-5.48-1.85-10.46-6.48-13.08-3.56-2-7-1.79-8.87-5.78l1.23,4.54c0,.06-1.38,3.28-.27.57.25-.6.53-1.2.78-1.8a45.5,45.5,0,0,0,2.09-6.12c1.08-4.25,1.65-9.07.31-13.32-3.18-10.11-13.78-6.93-21.38-5.71-9.3,1.49-18.47,4.16-27.83,5.29-5.87.72-9.11-4.2-14.34-6.1-7.77-2.82-16.12.22-23.69,2.3-3.43.94-7.25,2.14-10.86,1.71-3.36-.41-6.55-1.95-9.91-2.5-9-1.48-18,1.11-26.82,2.94-3.57.74-7.84,2-11.55,1.56-3-.33-5.86-2.26-8.61-3.35-16.39-6.49-33.43-1.77-50.27.41-7.85,1-16.25,2-24.12.67-7.6-1.3-15.15-5.1-22.94-5.08a44.57,44.57,0,0,0-20,5c-2.41,1.36-4.36,4-6.9,5-2,.79-4.94-.76-7.12-1.45C774.94,508.79,767,505.36,759,508c-2.66.88-5,3-7.78,3.31-3.44.45-7.37-1.07-10.74-1.63-4.3-.72-8.72-1.05-13-2.12-3.89-1-7.77-2.53-12.22-2.8-8.8-.54-17.93,1.22-26.61,2.45a134.65,134.65,0,0,1-24.48,1.57,46.13,46.13,0,0,1-9.51-1.15c-3.43-.86-6.34-2.89-9.75-3.81-4.91-1.32-8.48.11-13,1.74-3.88,1.41-7.91,2.57-11.89,3.67A99.63,99.63,0,0,1,594.5,513c-3.78.06-7.61.34-11.31-.56-4.33-1-8.48-2.54-13-2.28-7.16.4-13.5,4.6-20.77,5.08a122,122,0,0,1-27-1,74.53,74.53,0,0,1-12.12-3.09c-4.41-1.51-8.67-3.89-13.34-4.37-8.07-.82-15.95,3.19-24,3.72a200.74,200.74,0,0,1-24.77-.38,69.09,69.09,0,0,1-11.84-1.3c-3.73-.88-6.9-2.75-10.48-4-8.15-2.91-15.2-1.22-22.68,2.32A76.29,76.29,0,0,1,393,510.77c-2,.61-5.11,2-6.9,1-.86-.49-2-2.62-2.93-3.48a15.91,15.91,0,0,0-4.88-3.09,22.51,22.51,0,0,0-11.16-1.11c-8.36,1-16.26,4.48-24.68,4.88a152.73,152.73,0,0,1-25.11-1.06c-.87-.11-3.33-.53-3.33-.52-.28-.13-2.59-2.24-3.62-2.85a14.76,14.76,0,0,0-13.23-1c-7.3,3-13.83,7.95-21,11.26-6,2.73-15.25,7.06-21.9,5.68-3.49-.73-6.81-3-10.22-4.1s-5.34-1.83-7.81-3.89c-6.35-5.29-14.17-7.42-22.15-4.43-7.11,2.65-14.46,9-19.59,14.5,0,0-1.21.84-1.21.83-.63-1.1,4.65,1.81.9-.65a22.74,22.74,0,0,0-3.63-1.63c-3.14-1.33-5.12-3.49-8.05-5.41-9.7-6.39-18.73,9.19-9.08,15.54Z"/></svg>