<svg id="Слой_1" data-name="Слой 1" xmlns="http://www.w3.org/2000/svg" xmlns:xlink="http://www.w3.org/1999/xlink" viewBox="0 0 196 196"><defs><style>.cls-1,.cls-9{fill:none;}.cls-2{clip-path:url(#clip-path);}.cls-3{fill:#cdb4db;}.cls-4{fill:#e28837;stroke-width:4px;}.cls-4,.cls-5,.cls-6,.cls-8,.cls-9{stroke:#703622;stroke-miterlimit:10;}.cls-5{fill:#ff92ce;}.cls-7{fill:#fff;}.cls-8{fill:#ffc878;}.cls-9{stroke-linecap:round;}</style><clipPath id="clip-path"><rect class="cls-1" width="196" height="196"/></clipPath></defs><title>m1</title><g class="cls-2"><rect class="cls-3" width="196" height="196"/><path class="cls-4" d="M127.66,150c0-54.76-56.5-99.15-126.2-99.15S-124.74,95.22-124.74,150c0,28.37,15.18,53.93,39.48,72-5.86,16.12-2,32.33,8.72,36.39,9.71,3.67,21.74-3.85,28.59-17.12a156.13,156.13,0,0,0,49.41,7.89A158.72,158.72,0,0,0,37.81,245c7.59,13.57,20.56,20.87,30.3,16.47,9.32-4.21,12.57-17.69,8.33-31.69C107.51,211.67,127.66,182.68,127.66,150Z"/><circle class="cls-4" cx="66.06" cy="28.29" r="24.79"/><circle class="cls-5" cx="66.06" cy="28.29" r="14.27"/><circle class="cls-4" cx="159.21" cy="32.8" r="24.79"/><circle class="cls-5" cx="159.21" cy="32.8" r="14.27"/><circle class="cls-4" cx="109.63" cy="89.89" r="69.86"/><circle class="cls-6" cx="84.09" cy="76.37" r="12.77"/><circle class="cls-7" cx="86.35" cy="72.61" r="5.26"/><circle class="cls-7" cx="80.34" cy="81.62" r="2.25"/><circle class="cls-6" cx="139.68" cy="76.37" r="12.77"/><circle class="cls-7" cx="137.43" cy="72.61" r="5.26"/><circle class="cls-7" cx="143.44" cy="81.62" r="2.25"/><ellipse class="cls-8" cx="113.39" cy="117.68" rx="33.05" ry="25.54"/><path class="cls-9" d="M138.93,121.94c-2.48,4.72-7.7,7.76-12,7.76-13.4,0-12-7.51-12-7.51s1.5,7.51-12,7.51c-4.32,0-9.66-3-12.14-7.76"/><line class="cls-9" x1="114.89" y1="122.19" x2="114.89" y2="111.67"/><path class="cls-5" d="M124.27,97.79c-2.08-2.09-6-1.56-9.38,1-3.33-2.59-7.3-3.12-9.38-1-2.35,2.34-1.39,7.1,2.13,10.62a9.43,9.43,0,0,0,14.5,0C125.66,104.89,126.62,100.13,124.27,97.79Z"/></g></svg>