<svg id="Слой_1" data-name="Слой 1" xmlns="http://www.w3.org/2000/svg" xmlns:xlink="http://www.w3.org/1999/xlink" viewBox="0 0 196 196"><defs><style>.cls-1,.cls-9{fill:none;}.cls-2{clip-path:url(#clip-path);}.cls-3{fill:#ffc8dd;}.cls-4{fill:#e28837;stroke-width:4px;}.cls-4,.cls-5,.cls-6,.cls-8,.cls-9{stroke:#703622;stroke-miterlimit:10;}.cls-5{fill:#ff92ce;}.cls-7{fill:#fff;}.cls-8{fill:#ffc878;}.cls-9{stroke-linecap:round;}</style><clipPath id="clip-path"><rect class="cls-1" width="196" height="196"/></clipPath></defs><title>m2</title><g class="cls-2"><rect class="cls-3" width="196" height="196"/><ellipse class="cls-4" cx="44.52" cy="217.55" rx="27.55" ry="18.37" transform="translate(-124.6 73.65) rotate(-38.04)"/><path class="cls-4" d="M37,136.63c22.19-42.36,83.89-53.8,137.8-25.55s79.62,85.48,57.42,127.84c-11.49,21.94-33.59,35.56-59.71,39.69-2,14.84-11.53,25.83-21.49,24.61-9-1.1-15.26-11.79-15.18-24.83A136.2,136.2,0,0,1,94.4,264.47a138.12,138.12,0,0,1-26.42-18c-11.37,7.43-24.36,7.82-30.12.47-5.5-7-2.55-18.78,6.4-27.89C27.55,192.51,23.72,161.92,37,136.63Z"/><circle class="cls-4" cx="133.93" cy="67.47" r="21.65"/><circle class="cls-5" cx="133.93" cy="67.47" r="12.46"/><circle class="cls-4" cx="60.06" cy="33.2" r="21.65"/><circle class="cls-5" cx="60.06" cy="33.2" r="12.46"/><circle class="cls-4" cx="75.27" cy="97.45" r="61"/><circle class="cls-6" cx="100.5" cy="97.34" r="11.15"/><circle class="cls-7" cx="100.28" cy="93.53" r="4.59"/><circle class="cls-7" cx="101.28" cy="102.93" r="1.97"/><circle class="cls-6" cx="57.51" cy="74.82" r="11.15"/><circle class="cls-7" cx="60.77" cy="72.82" r="4.59"/><circle class="cls-7" cx="52.47" cy="77.36" r="1.97"/><ellipse class="cls-8" cx="61.1" cy="117.43" rx="22.3" ry="28.86" transform="translate(-71.27 117.05) rotate(-62.35)"/><path class="cls-9" d="M39.62,110.37c0,4.66,2.81,9.12,6.15,10.87,10.36,5.43,12.34-.93,12.34-.93s-4.21,5.2,6.25,10.68c3.34,1.75,8.71,1.57,12.54-1.09"/><line class="cls-9" x1="58.11" y1="120.31" x2="62.37" y2="112.17"/><path class="cls-5" d="M60.75,97.63c2.45-.77,5.31,1.25,6.83,4.6,3.63-.66,6.91.55,7.68,3,.86,2.77-1.8,6.06-6,7.36a9.31,9.31,0,0,1-7-.31,9.36,9.36,0,0,1-4.24-5.57C56.79,102.56,58,98.49,60.75,97.63Z"/></g></svg>