<svg id="Слой_1" data-name="Слой 1" xmlns="http://www.w3.org/2000/svg" viewBox="0 0 196 196"><defs><style>.cls-1{fill:#ffafcc;}.cls-2{fill:#e28837;}.cls-3{fill:#703622;}.cls-4{fill:#ff92ce;}.cls-5{fill:#fff;}.cls-6{fill:#ffc878;}</style></defs><title>m3</title><rect class="cls-1" width="196" height="196"/><ellipse class="cls-2" cx="108.65" cy="113.95" rx="4.31" ry="6.47" transform="translate(-37.27 54.82) rotate(-24.3)"/><path class="cls-3" d="M110.09,120.51c-2.12,0-4.47-1.81-5.74-4.62-1.56-3.46-.9-7.14,1.47-8.21s5.58.87,7.14,4.32a8.8,8.8,0,0,1,.76,4.93,4.13,4.13,0,0,1-2.24,3.28A3.34,3.34,0,0,1,110.09,120.51Zm-2.84-12.32a2.7,2.7,0,0,0-1.09.23c-2,.89-2.44,4.09-1.06,7.13s4.09,4.8,6.05,3.92a3.37,3.37,0,0,0,1.76-2.68,7.85,7.85,0,0,0-.7-4.45C111.08,109.83,109,108.19,107.25,108.19Z"/><ellipse class="cls-2" cx="84.7" cy="114.73" rx="6.47" ry="4.31" transform="translate(-52.56 153.41) rotate(-69.3)"/><path class="cls-3" d="M83.45,121.37a3.41,3.41,0,0,1-1.18-.21c-2.44-.92-3.33-4.56-2-8.1s4.41-5.69,6.85-4.77a4.16,4.16,0,0,1,2.44,3.14,8.87,8.87,0,0,1-.45,5h0C88,119.38,85.63,121.37,83.45,121.37Zm2.47-12.48c-1.83,0-3.87,1.79-4.87,4.46-1.18,3.12-.51,6.28,1.51,7s4.61-1.16,5.79-4.29h0a7.92,7.92,0,0,0,.42-4.48,3.36,3.36,0,0,0-1.93-2.56A2.67,2.67,0,0,0,85.92,108.89Z"/><circle class="cls-2" cx="70.99" cy="85.93" r="5.08"/><path class="cls-3" d="M71,91.42a5.49,5.49,0,1,1,5.49-5.49A5.49,5.49,0,0,1,71,91.42Zm0-10.16a4.67,4.67,0,1,0,4.67,4.67A4.68,4.68,0,0,0,71,81.26Z"/><path class="cls-2" d="M119,97.94c0-11.23-11.58-20.33-25.87-20.33S67.3,86.71,67.3,97.94c0,5.81,3.11,11.06,8.09,14.76-1.2,3.3-.42,6.63,1.79,7.46,2,.75,4.46-.79,5.86-3.51a32.57,32.57,0,0,0,17.58.76c1.56,2.78,4.21,4.28,6.21,3.38s2.58-3.63,1.71-6.5C114.91,110.59,119,104.64,119,97.94Z"/><path class="cls-3" d="M105.6,121.45c-1.82,0-3.84-1.34-5.18-3.57a33.14,33.14,0,0,1-7.25.8,32.47,32.47,0,0,1-9.93-1.53c-1.55,2.76-4.12,4.18-6.21,3.39-2.36-.89-3.27-4.23-2.13-7.69-5.17-3.94-8-9.23-8-14.91,0-11.43,11.79-20.74,26.28-20.74s26.28,9.31,26.28,20.74c0,6.47-3.89,12.64-10.43,16.54.8,3,0,5.78-2,6.68A3.35,3.35,0,0,1,105.6,121.45Zm-4.77-4.51.15.27c1.47,2.63,3.91,4,5.68,3.2s2.31-3.28,1.49-6l-.1-.31.28-.16c6.45-3.75,10.3-9.73,10.3-16C118.63,87,107.21,78,93.17,78S67.71,87,67.71,97.94c0,5.5,2.81,10.63,7.92,14.43l.25.18-.11.29c-1.12,3.08-.42,6.19,1.55,6.94,1.77.66,4-.73,5.35-3.32l.17-.31.33.11a31.45,31.45,0,0,0,10,1.6,32.33,32.33,0,0,0,7.36-.85Z"/><circle class="cls-2" cx="106.41" cy="72.99" r="5.08"/><path class="cls-3" d="M106.41,78.48A5.49,5.49,0,1,1,111.9,73,5.49,5.49,0,0,1,106.41,78.48Zm0-10.16A4.67,4.67,0,1,0,111.08,73,4.68,4.68,0,0,0,106.41,68.32Z"/><circle class="cls-4" cx="106.41" cy="72.99" r="2.93"/><path class="cls-3" d="M106.41,76a3,3,0,1,1,3-3A3,3,0,0,1,106.41,76Zm0-5.85A2.83,2.83,0,1,0,109.24,73,2.83,2.83,0,0,0,106.41,70.17Z"/><circle class="cls-2" cx="125.51" cy="73.92" r="5.08"/><path class="cls-3" d="M125.51,79.41A5.5,5.5,0,1,1,131,73.92,5.5,5.5,0,0,1,125.51,79.41Zm0-10.17a4.68,4.68,0,1,0,4.67,4.68A4.68,4.68,0,0,0,125.51,69.24Z"/><circle class="cls-4" cx="125.51" cy="73.92" r="2.93"/><path class="cls-3" d="M125.51,76.94a3,3,0,1,1,3-3A3,3,0,0,1,125.51,76.94Zm0-5.85a2.83,2.83,0,1,0,2.82,2.83A2.83,2.83,0,0,0,125.51,71.09Z"/><circle class="cls-2" cx="115.34" cy="85.62" r="14.32"/><path class="cls-3" d="M115.34,100.35a14.73,14.73,0,1,1,14.74-14.73A14.75,14.75,0,0,1,115.34,100.35Zm0-28.64a13.91,13.91,0,1,0,13.92,13.91A13.93,13.93,0,0,0,115.34,71.71Z"/><circle cx="110.11" cy="82.85" r="2.62"/><path class="cls-3" d="M110.11,85.57a2.72,2.72,0,1,1,2.72-2.72A2.72,2.72,0,0,1,110.11,85.57Zm0-5.24a2.52,2.52,0,1,0,2.51,2.52A2.52,2.52,0,0,0,110.11,80.33Z"/><circle class="cls-5" cx="110.57" cy="82.08" r="1.08"/><circle class="cls-5" cx="109.34" cy="83.93" r="0.46"/><circle cx="121.5" cy="82.85" r="2.62"/><path class="cls-3" d="M121.5,85.57a2.72,2.72,0,1,1,2.72-2.72A2.72,2.72,0,0,1,121.5,85.57Zm0-5.24A2.52,2.52,0,1,0,124,82.85,2.52,2.52,0,0,0,121.5,80.33Z"/><circle class="cls-5" cx="121.04" cy="82.08" r="1.08"/><circle class="cls-5" cx="122.27" cy="83.93" r="0.46"/><ellipse class="cls-6" cx="116.11" cy="91.32" rx="6.78" ry="5.24"/><path class="cls-3" d="M116.11,96.66c-3.79,0-6.87-2.4-6.87-5.34S112.32,86,116.11,86,123,88.37,123,91.32,119.91,96.66,116.11,96.66Zm0-10.48c-3.68,0-6.67,2.31-6.67,5.14s3,5.13,6.67,5.13,6.68-2.3,6.68-5.13S119.79,86.18,116.11,86.18Z"/><path class="cls-3" d="M118.89,93.88a2.89,2.89,0,0,1-2.29-.73,1.17,1.17,0,0,1-.17-.28,1.47,1.47,0,0,1-.18.28,2.87,2.87,0,0,1-2.29.73,3.15,3.15,0,0,1-2.58-1.64.1.1,0,1,1,.18-.1,2.94,2.94,0,0,0,2.4,1.54,2.73,2.73,0,0,0,2.13-.66,1,1,0,0,0,.23-.51,1.2,1.2,0,0,1,0-.29l.1-.52.1.52a1,1,0,0,1,0,.29,1.09,1.09,0,0,0,.23.52,2.8,2.8,0,0,0,2.13.65,2.9,2.9,0,0,0,2.37-1.54.1.1,0,0,1,.18.1A3.09,3.09,0,0,1,118.89,93.88Z"/><path class="cls-3" d="M116.42,92.34a.1.1,0,0,1-.1-.1V90.09a.11.11,0,0,1,.1-.11.1.1,0,0,1,.1.11v2.15A.09.09,0,0,1,116.42,92.34Z"/><path class="cls-4" d="M118.34,87.24c-.42-.43-1.24-.32-1.92.21a1.5,1.5,0,0,0-1.92-.21c-.48.48-.29,1.46.43,2.18a2,2,0,0,0,3,0C118.63,88.7,118.83,87.72,118.34,87.24Z"/><path class="cls-3" d="M116.41,90.22a2.31,2.31,0,0,1-1.55-.73c-.76-.76-1-1.8-.43-2.32a1.55,1.55,0,0,1,2,.15,1.56,1.56,0,0,1,2-.15h0c.52.52.32,1.56-.44,2.32a2.27,2.27,0,0,1-1.55.73Zm-1.21-3.14a.86.86,0,0,0-.63.23c-.44.44-.24,1.35.44,2a2.09,2.09,0,0,0,1.4.67h0a2.11,2.11,0,0,0,1.41-.67c.68-.68.87-1.59.43-2s-1.13-.29-1.78.22l-.07,0-.06,0A2,2,0,0,0,115.2,87.08Z"/></svg>