<svg id="Слой_1" data-name="Слой 1" xmlns="http://www.w3.org/2000/svg" xmlns:xlink="http://www.w3.org/1999/xlink" viewBox="0 0 196 196"><defs><style>.cls-1{fill:none;}.cls-2{clip-path:url(#clip-path);}.cls-3{fill:#bde0fe;}.cls-4{fill:#e28837;stroke:#703622;stroke-miterlimit:10;stroke-width:4px;}</style><clipPath id="clip-path"><rect class="cls-1" width="196" height="196"/></clipPath></defs><title>m4</title><g class="cls-2"><rect class="cls-3" width="196" height="196"/><ellipse class="cls-4" cx="146.38" cy="151.17" rx="22.34" ry="14.89" transform="translate(-46.76 234.68) rotate(-69.3)"/><circle class="cls-4" cx="99.05" cy="51.72" r="17.55"/><path class="cls-4" d="M265,93.2C265,54.43,225,23,175.63,23S86.29,54.43,86.29,93.2c0,20.08,10.74,38.18,27.94,51-4.15,11.41-1.43,22.89,6.18,25.76,6.87,2.6,15.39-2.72,20.24-12.12a110.16,110.16,0,0,0,35,5.59,112.21,112.21,0,0,0,25.73-3c5.38,9.61,14.55,14.78,21.46,11.66,6.59-3,8.9-12.52,5.89-22.43C250.71,136.87,265,116.35,265,93.2Z"/></g></svg>