<svg id="Слой_1" data-name="Слой 1" xmlns="http://www.w3.org/2000/svg" xmlns:xlink="http://www.w3.org/1999/xlink" viewBox="0 0 196 196"><defs><style>.cls-1,.cls-9{fill:none;}.cls-2{clip-path:url(#clip-path);}.cls-3{fill:#a2d2ff;}.cls-4{fill:#e28837;stroke-width:4px;}.cls-4,.cls-5,.cls-6,.cls-8,.cls-9{stroke:#703622;stroke-miterlimit:10;}.cls-5{fill:#ff92ce;}.cls-7{fill:#fff;}.cls-8{fill:#ffc878;}.cls-9{stroke-linecap:round;}</style><clipPath id="clip-path"><rect class="cls-1" width="196" height="196"/></clipPath></defs><title>m5</title><g class="cls-2"><rect class="cls-3" width="196" height="196"/><path class="cls-4" d="M42,34.3c27.68,47.25,98.87,57,159,21.78S287.43-46,259.75-93.27c-14.33-24.47-40.35-38.85-70.45-42.17-3.09-16.87-14.59-28.92-25.91-27-10.24,1.74-16.82,14.31-16,29.23A155.57,155.57,0,0,0,100.74-115a158.16,158.16,0,0,0-29.24,22c-13.41-7.88-28.29-7.62-34.48,1.11-5.91,8.34-1.9,21.61,8.83,31.55C28.17-29.12,25.44,6.08,42,34.3Z"/><circle class="cls-4" cx="156.62" cy="108.17" r="24.79"/><circle class="cls-5" cx="156.62" cy="108.17" r="14.27"/><circle class="cls-4" cx="73.96" cy="151.36" r="24.79"/><circle class="cls-5" cx="73.96" cy="151.36" r="14.27"/><circle class="cls-4" cx="87.89" cy="77.04" r="69.86"/><circle class="cls-6" cx="116.76" cy="75.8" r="12.77"/><circle class="cls-7" cx="116.72" cy="80.18" r="5.26"/><circle class="cls-7" cx="117.35" cy="69.37" r="2.25"/><circle class="cls-6" cx="68.8" cy="103.9" r="12.77"/><circle class="cls-7" cx="72.64" cy="106" r="5.26"/><circle class="cls-7" cx="62.9" cy="101.26" r="2.25"/><ellipse class="cls-8" cx="70.6" cy="54.96" rx="33.05" ry="25.54" transform="matrix(0.86, -0.51, 0.51, 0.86, -18.09, 43.22)"/><path class="cls-9" d="M46.41,64.19c-.25-5.33,2.73-10.59,6.45-12.77,11.56-6.77,14.17.41,14.17.41S61.94,46.1,73.6,39.27c3.73-2.18,9.88-2.26,14.4.56"/><line class="cls-9" x1="67.03" y1="51.83" x2="72.34" y2="60.9"/><path class="cls-5" d="M71.27,77.62c2.85.75,6-1.71,7.57-5.63,4.18.56,7.87-1,8.62-3.85.83-3.21-2.39-6.83-7.21-8.09a10.67,10.67,0,0,0-8,.73,10.72,10.72,0,0,0-4.54,6.6C66.48,72.2,68.06,76.79,71.27,77.62Z"/></g></svg>