<svg id="Слой_1" data-name="Слой 1" xmlns="http://www.w3.org/2000/svg" viewBox="0 0 221 181.33"><defs><style>.cls-1{fill:#e28837;stroke-width:4px;}.cls-1,.cls-2,.cls-3,.cls-5,.cls-6{stroke:#703622;stroke-miterlimit:10;}.cls-2{fill:#ff92ce;}.cls-4{fill:#fff;}.cls-5{fill:#ffc878;}.cls-6{fill:none;stroke-linecap:round;}</style></defs><title>mimi</title><ellipse class="cls-1" cx="144.61" cy="153.63" rx="14" ry="21" transform="translate(-50.42 73.14) rotate(-24.3)"/><ellipse class="cls-1" cx="66.83" cy="156.17" rx="21" ry="14" transform="translate(-102.88 163.5) rotate(-69.3)"/><circle class="cls-1" cx="22.33" cy="62.67" r="16.5"/><path class="cls-1" d="M178.33,101.67c0-36.45-37.6-66-84-66s-84,29.55-84,66c0,18.88,10.11,35.89,26.28,47.92-3.9,10.73-1.35,21.52,5.8,24.22,6.47,2.44,14.48-2.56,19-11.4a103.7,103.7,0,0,0,32.88,5.26,105.32,105.32,0,0,0,24.2-2.8c5,9,13.68,13.9,20.17,11,6.2-2.8,8.37-11.77,5.54-21.09C164.92,142.73,178.33,123.43,178.33,101.67Z"/><circle class="cls-1" cx="137.33" cy="20.67" r="16.5"/><circle class="cls-2" cx="137.33" cy="20.67" r="9.5"/><circle class="cls-1" cx="199.33" cy="23.67" r="16.5"/><circle class="cls-2" cx="199.33" cy="23.67" r="9.5"/><circle class="cls-1" cx="166.33" cy="61.67" r="46.5"/><circle class="cls-3" cx="149.33" cy="52.67" r="8.5"/><circle class="cls-4" cx="150.83" cy="50.17" r="3.5"/><circle class="cls-4" cx="146.83" cy="56.17" r="1.5"/><circle class="cls-3" cx="186.33" cy="52.67" r="8.5"/><circle class="cls-4" cx="184.83" cy="50.17" r="3.5"/><circle class="cls-4" cx="188.83" cy="56.17" r="1.5"/><ellipse class="cls-5" cx="168.83" cy="80.17" rx="22" ry="17"/><path class="cls-6" d="M185.83,83a9.71,9.71,0,0,1-8,5.17c-8.92,0-8-5-8-5s1,5-8,5A9.86,9.86,0,0,1,153.75,83"/><line class="cls-6" x1="169.83" y1="83.17" x2="169.83" y2="76.17"/><path class="cls-2" d="M176.08,66.92c-1.39-1.38-4-1-6.25.69-2.21-1.72-4.85-2.07-6.24-.69C162,68.49,162.66,71.65,165,74a6.29,6.29,0,0,0,9.66,0C177,71.65,177.64,68.49,176.08,66.92Z"/></svg>