<svg id="Слой_1" data-name="Слой 1" xmlns="http://www.w3.org/2000/svg" xmlns:xlink="http://www.w3.org/1999/xlink" viewBox="0 0 196 196"><defs><style>.cls-1,.cls-9{fill:none;}.cls-2{clip-path:url(#clip-path);}.cls-3{fill:#ffafcc;}.cls-4{fill:#e28837;stroke-width:4px;}.cls-4,.cls-5,.cls-6,.cls-8,.cls-9{stroke:#703622;stroke-miterlimit:10;}.cls-5{fill:#ff92ce;}.cls-7{fill:#fff;}.cls-8{fill:#ffc878;}.cls-9{stroke-linecap:round;}</style><clipPath id="clip-path"><rect class="cls-1" width="196" height="196"/></clipPath></defs><title>mimi2</title><g class="cls-2"><rect class="cls-3" width="196" height="196"/><path class="cls-4" d="M71.83,150c0-54.76,56.5-99.16,126.2-99.15S324.23,95.22,324.23,150c0,28.37-15.18,53.93-39.48,72,5.87,16.12,2,32.33-8.71,36.39-9.71,3.67-21.75-3.85-28.6-17.12A156.08,156.08,0,0,1,198,249.14,158.57,158.57,0,0,1,161.69,245c-7.6,13.57-20.56,20.87-30.31,16.47-9.32-4.21-12.57-17.69-8.33-31.69C92,211.67,71.83,182.68,71.83,150Z"/><circle class="cls-4" cx="133.43" cy="28.29" r="24.79"/><circle class="cls-5" cx="133.43" cy="28.29" r="14.27"/><circle class="cls-4" cx="40.28" cy="32.8" r="24.79"/><circle class="cls-5" cx="40.28" cy="32.8" r="14.27"/><circle class="cls-4" cx="89.86" cy="89.89" r="69.86"/><circle class="cls-6" cx="115.4" cy="76.37" r="12.77"/><circle class="cls-7" cx="113.15" cy="72.61" r="5.26"/><circle class="cls-7" cx="119.16" cy="81.62" r="2.25"/><circle class="cls-6" cx="59.81" cy="76.37" r="12.77"/><circle class="cls-7" cx="62.07" cy="72.61" r="5.26"/><circle class="cls-7" cx="56.06" cy="81.62" r="2.25"/><ellipse class="cls-8" cx="86.1" cy="117.68" rx="33.05" ry="25.54"/><path class="cls-9" d="M60.56,121.94c2.48,4.72,7.7,7.76,12,7.76,13.4,0,12-7.51,12-7.51s-1.5,7.51,12,7.51c4.32,0,9.67-3,12.14-7.76"/><line class="cls-9" x1="84.6" y1="122.19" x2="84.6" y2="111.67"/><path class="cls-5" d="M75.22,97.79c2.08-2.09,6-1.56,9.38,1,3.33-2.59,7.3-3.12,9.38-1,2.35,2.34,1.4,7.1-2.12,10.62a10.7,10.7,0,0,1-7.26,3.4,10.68,10.68,0,0,1-7.25-3.4C73.83,104.89,72.88,100.13,75.22,97.79Z"/></g></svg>