<svg id="Слой_1" data-name="Слой 1" xmlns="http://www.w3.org/2000/svg" viewBox="0 0 241.17 138.34"><defs><style>.cls-1{fill:#ff45bd;}</style></defs><title>ramka2</title><path class="cls-1" d="M1.07,7.32c1.17,1.48,3.39,4.06,5.55,4,3.05-.15,3.65-4.55,6.62-5.15,3.36-.68.64-.31,2.85.7.72.33,1.85,1.13,2.48,1.51,1.31.8,2.3,1.73,3.87,1.91,3.14.35,6.63-2.17,9-4,1.1-.85,2.72-3,4.21-2.91.29,0,2.17,1.39,2.64,1.52C43,6.2,46.65,5,51.1,4c2.75-.6,2.55.25,4.08,1.64a3.93,3.93,0,0,0,2.9,1.13,9,9,0,0,0,3.35-1.22c2.65-1.31,3.7-2.09,6.6-1.16A31.12,31.12,0,0,0,78.31,6.21a35.84,35.84,0,0,0,5.5-.74c3.88-.63,4.36.41,7.42,1.52a21,21,0,0,0,10.83.89c2.2-.45,3.74-1.8,6.15-1.44,2.13.31,3.64.82,6,.63a20.73,20.73,0,0,0,5.75-1.33c1.24-.47,3.4-2.06,4.69-2.2s2,.72,3.31,1.21a15.19,15.19,0,0,0,6,.64c4.62-.27,8.24-2,12.94-.84,3.34.83,6.18,2.22,9.58,1.36a7.11,7.11,0,0,1,5,.14c1,.39,2.06,1.2,3.25,1.09a4.31,4.31,0,0,0,2.05-.84c2.72-1.93,3.59-3.68,7.22-2.67,3,.83,5,1.74,8.2,1.42a54.4,54.4,0,0,0,5.93-1.14,24.32,24.32,0,0,1,4-.74c2.13-.06,3.54,1.13,5.36,1.78,3.74,1.33,5.61-.14,9.51-.77,2.49-.4,4.35,1,6.76.87,2-.08,3.5-1.26,5.58-1.24,2.68,0,2.33,1.13,4.49,1.93a5.75,5.75,0,0,0,3.21,0,24.34,24.34,0,0,0,6.8-2.05c-1,.57,2.43-.68,1.45-1.09.8.34-.66,4.24-.78,5.19-.32,2.67,1.14,3.34,2,5.53s-2.94,5.28-3.44,8c-.84,4.46,1.92,7.25-.45,11.74-1.55,2.92-4,5.4-3.69,9,.27,3.19,2.84,3.91.46,7.71-.66,1.05-1.85,1.62-2.29,2.87-.83,2.39.74,4.63,2.05,6.51C232,63.24,229,65.73,229,70a20.32,20.32,0,0,0,.92,5.28,10,10,0,0,1,0,5.24,3.56,3.56,0,0,0,.21,2.72c.39.71,2,1.34,2.21,2,.53,1.88-4.44,5.13-4.46,7.93,0,1.1,1,2.23,1,3.12,0,2.12-2.71,3.1-3.79,4.68-1.79,2.62-1.23,4.62.42,7.08.75,1.11,1.28,1.28,1.84,2.61s.13,2,.56,3.19a9.31,9.31,0,0,0,1.72,2.84c.66.76,2,1.22,1.9,2.3s-.65.69-1.07,1.34c-.6,1-1.48,1.53-1.68,2.8-.34,2,1.11,3.6,1.6,5.45s-.17,3.18-.11,4.89c.08,1.9.85,3.61,2.93,3.57a1.52,1.52,0,0,0,.76-2.8c-3.43-2.54-8.13-7.14-12.33-8.18s-5.75,2.93-8.89,4.79c-4.27,2.54-4.78-2.71-8-4.75-2.29-1.44-4.92,0-7.18.74-4.47,1.57-9.51,3.75-14.26,2.62-2.69-.64-3.38-.85-5.23,1.5-1.59,2-2.65,3.15-5.19,2.67-1.9-.35-2.81-.91-4.82-.85-3,.08-1.37,1.06-6,.13.41.08-1.21-.8-1.54-.8-1.76,0-2.22-.19-3.87.79a21.82,21.82,0,0,1-2.23,1.62c-1.61.69-.42.7-1.91,0s-2.73-2.89-4.14-3.82c-3.19-2.1-5.2-.57-8.4.62-2.51.93-4.09.16-6.51.18-1.68,0-2.31.58-3.75,1.22-.44.2-.7.83-1.1,1-3.19,1.44-2.7.2-4.63-.33a11.65,11.65,0,0,0-5.8-.56c-2.38.41-4.65,1.17-7.1,1.19s-4.78-.73-7.24-1.06c-2.7-.36-5.36.21-8.07.09s-5.13-1.16-7.78-.9a15.27,15.27,0,0,0-4.56,1.45c-2.51,1.07-4.19,1.8-6.9,1.17-.76-.17-2.48-1-3-1.25a9.44,9.44,0,0,0-4.57-.65,21.86,21.86,0,0,0-3.12,1,13.81,13.81,0,0,1-7.19-.09c-5.07-1.18-9.84-3.28-15.15-3A11.67,11.67,0,0,0,38.14,132c-.51.28-.92.81-1.45,1.07a8.52,8.52,0,0,1-6.33.8c-2.78-.63-5.4-1.24-8.22-1.77-2.41-.45-4.83-1.52-7.32-1.37-4.44.25-9,2.62-13.13,4.2l1.84,1C3,134.5,6.72,131.14,7,129.31c.52-3.45-2.89-6-2.84-9.74,0-3.25.72-6.29.28-9.58-.72-5.41-1.3-9.87,1.26-15,1.16-2.33,2.77-4,2.56-6.74-.11-1.45-.87-2.58-1.22-4-.92-3.57-.3-3.11.64-6,.76-2.36.15-4.06.44-6.4A32.59,32.59,0,0,0,8.36,64c-.18-2-.21-2.89.69-4.6.72-1.36,1.94-2.32,2.33-3.89.65-2.66-.87-4.76-.25-7.6.52-2.41,1.1-4.33.61-6.79-.35-1.76-1.07-1.79-1.37-4a10.11,10.11,0,0,0-.17-2.19c-.93-2.5-3.85-3.15-5-5.8a8.21,8.21,0,0,1,.21-6.64c.45-1,1.31-1.71,1.44-2.87.29-2.42-1.55-2.78-2.67-4.54-1.7-2.64-.45-6.46-1-9.53C2.92,3.62,0,4.43.35,6.32c.51,3-1.13,6,.15,8.78.44,1,1.1,1.25,1.59,2.08,1.42.6,1.79,1.68,1.12,3.26a16.49,16.49,0,0,0-1.31,2c-1.51,3.66.43,8.19,2.52,11.16,1.15,1.63,1.67,1.55,2.63,4.21.16.44.08,1.35.2,1.9.21.33.44.65.68,1a5.05,5.05,0,0,1,.89,4.37c-.15,1.5-1.16,2.8-1.36,4.26a10.47,10.47,0,0,0,.06,2.33c.28,5.08,1,3.18-1.06,6.27A6.63,6.63,0,0,0,5.17,63.3c.22,2.26.91,4.32.45,6.61-.28,1.43-.6,2.57-.77,4-.28,2.36-1.18,5-1.38,7.48-.33,4.2,2.36,6.17.43,10.8C2.53,95.45.71,98.35.37,102c-.23,2.49.51,4.77.91,7.2C2,113.57.63,117.58.92,121.8c.28,4,3.47,6.34.89,10.56-1,1.64-1.88,2.46-1.17,4.45a1.51,1.51,0,0,0,1.85,1.05c3.69-1.43,7.56-3.29,11.52-3.93,2.78-.44,5.13.81,7.77,1.27a49.25,49.25,0,0,1,8.52,1.88c4.08,1.47,5,.46,8.39-1.69,5.36-3.42,10.63-.4,16.1.69,2.41.48,5,1.52,7.46,1.53,2,0,3.66-.92,5.61-1.31,4.71-1,8.23,2.92,12.94,1.61,2.23-.63,4.26-2.2,6.52-2.63,2.46-.47,5,.57,7.45.75,2.92.23,5.75-.37,8.65,0,2.6.32,5,1.06,7.59,1a30.45,30.45,0,0,0,4.57-.52c2.36-.39,4-.94,6.33-.42,1.29.28,2,.8,3.22,1.15,4.08,1.16,4.91-2.32,8.88-2.54,1.5-.08,2.66.47,4.27.21a16.21,16.21,0,0,0,4.08-1.37c5.56-2.45,5.78,3.69,9.9,4.71a3.77,3.77,0,0,0,2.58-.5c2.5-1.11,2.9-2.51,6.25-2a19.33,19.33,0,0,0,4.17.55c.62,0,1.33-.32,1.89-.36,3.8-.27,3.34.44,6.22,1.11,2.36.54,3.84-.28,5.41-2,.88-1,1.47-2.68,3-2.93,1-.16,3.12.78,4.35.75,4.48-.1,8.82-2,13-3.39,2.89-1,3.77-1.09,5.8,1.23a21.73,21.73,0,0,0,3.89,4c2.24,1.49,3.56.55,5.38-1,3-2.64,5.31-5,9.64-2.93,3,1.44,6,4.14,8.65,6.1l.76-2.79s.63-3.66.63-3.8c0-1.35-.85-2.44-1.06-3.7a12.11,12.11,0,0,1,.27-4.36c.18-.35.85-.41,1-.76.46-.86,1.19-1.19,1.18-2.33a3.7,3.7,0,0,0-.77-1.89c-1.56-2.41-3.18-2.25-3.49-5.54-.28-3.05-1.61-2.78-3-5.29-3-5.52,4.62-5.44,4.33-9.74-.05-.71-.66-1.18-.82-1.79-1.09-4.2,1.65-4.43,3.65-7,1-1.22,1.31-2.54.39-3.89s-2.29-1-2.6-3c-.16-1,.67-2.39.55-3.59-.18-1.84-1.06-3.59-1.31-5.43-.48-3.42,1-4.56,1.83-7.44s-.73-4.59-2.27-6.8-1.6-3.52-.24-5.75c.56-.91,1.43-1.52,1.8-2.57,1.2-3.32-1.68-6.35-1-9.68.76-3.54,4.45-5.77,5-9.37a5.67,5.67,0,0,0-.26-2.94c-1.19-4.18-1.5-6.58,1.89-10.11,1.2-1.25,2.74-2.06,1.95-4.07-.31-.78-1.08-1-1.58-1.66-2.71-3.4-1.32-3.61-1.07-7.28.5-7.22-6.09-2.48-10.15-1.93-3.07.42-3.21-.66-5.77-1.73a4.64,4.64,0,0,0-2.91-.52c-1.64.19-3,1.4-4.57,1.69-2.37.45-4.29-.93-6.55-.88s-4.21,1.5-6.41,1.75c-2.41.26-3.67-1.11-5.7-1.91-3.17-1.25-6.44-.22-9.65.48A20.69,20.69,0,0,1,174.25.51a7.32,7.32,0,0,0-6.88.89c-1.47,1-1.69,2.6-3.92,2.29C162.26,3.52,161.2,2.35,160,2c-2.92-.79-4.45,1.39-7.35,1S147.11.8,144.08.75C139.72.68,135.55,3,131.15,2.38c-3.08-.42-4.64-2.8-7.57-1.79-2,.7-3.82,2.16-5.94,2.79a16.42,16.42,0,0,1-4.29.74c-2.14,0-3.86-1-5.88-1.11-3-.21-5.51,2.06-8.71,2.11A17.56,17.56,0,0,1,90.22,3.2c-1.39-.72-2.48-1.76-4.15-1.69-2.58.09-5.08,1.58-7.76,1.7A19.43,19.43,0,0,1,69,1.39C66.37.08,65.26-.2,62.66,1.24c-.88.48-1.74,1.45-2.75,1.69-1.84.44-2.82-.89-4-1.53a6.21,6.21,0,0,0-2.19-1C51.74.07,49.8,1.47,48,2a14.92,14.92,0,0,1-9-.3C36.52.62,35.76-1,33.17.81c-4.74,3.28-8.41,8.74-14.4,4.28C16.56,3.44,15.38.56,12.15,1.9,10.62,2.53,9.92,4,8.87,5.13,6.24,8,5.71,8.4,3.19,5.2,2,3.68-.11,5.82,1.07,7.32Z"/></svg>