<svg id="Слой_1" data-name="Слой 1" xmlns="http://www.w3.org/2000/svg" viewBox="0 0 48.7 53.34"><defs><style>.cls-1{fill:#ff45bd;}</style></defs><title>ramka</title><path class="cls-1" d="M1.78,7.48a4.34,4.34,0,0,1,.05-2.23A6.25,6.25,0,0,1,2.89,3.37,2,2,0,0,1,4,2.78c-.33,3.08,4.84,2.8,3.42-.15a1.88,1.88,0,0,0-1.06-.87A4,4,0,0,1,8.55,2c-.11.88.32,2.74,1.34,2.91a1.44,1.44,0,0,0,1.54-1.8,3.06,3.06,0,0,0-1.31-1.53l.74-.22A4.91,4.91,0,0,1,13,2.15a3.41,3.41,0,0,1,.38.35,1.83,1.83,0,0,0-.14.35c-.63,2.87,3.33,2.81,2.35.37a3,3,0,0,0-.53-.8l0,0a7.08,7.08,0,0,1,1.22-.08A10.93,10.93,0,0,1,18,2.44c.26,0,.55.12.83.19-1.5,2.82,3.86,3,2.69.32a1.51,1.51,0,0,0-.26-.38,6.49,6.49,0,0,1,2.51-.4C22.52,4.61,27,6.62,26.75,3.28a1.72,1.72,0,0,0-.55-1.12,2.77,2.77,0,0,1,2.38-.36,3,3,0,0,1,1.08.58C29.36,3.9,30.36,5.66,32,5a.55.55,0,0,0,.37-.49A2.78,2.78,0,0,0,32,2.88c0-.06,0-.12.06-.2.24-1.07.74-1.36,1.49-.87a2.24,2.24,0,0,1,1.17.78c-.51,1.58.65,3.55,1.86,2.48.91-.8.66-1.68-.08-2.45L37.09,2a1.58,1.58,0,0,1,1.11.07,2.46,2.46,0,0,0,2.07,3.09.54.54,0,0,0,.57-.23c.64-.91,0-2.44-.79-3.12l-.21-.15a2.21,2.21,0,0,1,2.8-.24A3,3,0,0,1,43.7,2.89a.91.91,0,0,0,.07.14.4.4,0,0,0,.48.42,2.32,2.32,0,0,1,2.27,1.43,3.69,3.69,0,0,0-.29,1,1,1,0,0,0-1.41.77.5.5,0,0,0,.23.57,1.32,1.32,0,0,0,1.2-.09l.06.35h1a2.64,2.64,0,0,0-.32-1A2.23,2.23,0,0,0,47.63,5a3.18,3.18,0,0,0-3.05-2.59,3.67,3.67,0,0,0-5.13-2,2.57,2.57,0,0,0-.79.7,4.38,4.38,0,0,0-2.51,0,2.5,2.5,0,0,0-.9.55A7.19,7.19,0,0,0,31.69.49a2.36,2.36,0,0,0-1.45.72L30,1.1a7.12,7.12,0,0,0-5.4.23,7.3,7.3,0,0,0-4.69.36,7.68,7.68,0,0,0-5.66,0C12.59.4,10-.42,8.93,1,7.35.41,5.46.43,4.52,1.43a3.3,3.3,0,0,0-.47,0A4.6,4.6,0,0,0,.91,4.52a4.79,4.79,0,0,0-.22,3Z"/><path class="cls-1" d="M47,38.15A4,4,0,0,0,48,35a5.28,5.28,0,0,0-.69-1.76,4.18,4.18,0,0,0,.16-2.76,8.9,8.9,0,0,0-1.18-2.73A5.68,5.68,0,0,0,47,26.56a3.42,3.42,0,0,0-.35-2.9,5.14,5.14,0,0,0,.28-3.52,1.67,1.67,0,0,0,.67-1.57,7.25,7.25,0,0,0-1-2.16c2-1.21,1.65-3.84.48-5.65a3.94,3.94,0,0,0,.37-1.61,9.84,9.84,0,0,0,0-1.81H46.31a4.25,4.25,0,0,1,.08,2.28c0,.07,0,.13-.08.19-.54-.62-1.24-1.24-2.05-.94a1.3,1.3,0,0,0-.76,1.57,1.82,1.82,0,0,0,2.28,1.23,2.11,2.11,0,0,0,.55-.22l.06.12c.53.91,1.08,2.75.09,3.65-.33,0-.61-.05-.86-.05-1-1.08-2.09-1.81-3-1.12-2,1.54,1.32,2.95,3,2.72l.13.17a2.87,2.87,0,0,1,.76,1.56,2,2,0,0,1-.19.47,1.84,1.84,0,0,0-.26-.29c-1.38-1.28-3.56.11-2,1.59a2,2,0,0,0,1.94.37,2.48,2.48,0,0,1-.16,2,3.28,3.28,0,0,0-.7-.49.52.52,0,0,0-.61.08c-1.07.91-1.62,3.66.59,2.89a2.16,2.16,0,0,0,.75-.43,1.42,1.42,0,0,1,.18.51,2.15,2.15,0,0,1-.56,1.63,1.62,1.62,0,0,0-1.28-.41,1.33,1.33,0,0,0-.61,2.26,1.35,1.35,0,0,0,1.83,0,4.37,4.37,0,0,1,1,1.74,1.16,1.16,0,0,1-.34,1.5,1.29,1.29,0,0,0-1.41-.09c-1.35.8-.28,2.44,1,2.39a2.36,2.36,0,0,0,.8-.18,1.39,1.39,0,0,0,.21.11,3,3,0,0,1-.26,3l-.26.24A1.07,1.07,0,0,0,44.78,39a.51.51,0,0,0,.49.13,4.08,4.08,0,0,0,.62-.2c.47.72,1.13,1.68,1.25,2,.46,1.17.93,2.47-.43,3.07a1.87,1.87,0,0,0-1.86-1.33c-1,.11-1.15,1-.71,1.82a1.67,1.67,0,0,0,2,.89c0,.82-.74,1.2-2.38,1.14,0-.9-.76-1.88-1.69-1.61a.5.5,0,0,0-.36.48,4.21,4.21,0,0,0,.52,2,2,2,0,0,1-.68.4,4,4,0,0,1-1.12.3.43.43,0,0,0-.27,0,1.47,1.47,0,0,1-.71.09c0-1.41-.71-2.75-2-2.24a1.85,1.85,0,0,0-.6,2.44,2.12,2.12,0,0,0,1.33.77,1.19,1.19,0,0,1-1.61.7,3.56,3.56,0,0,1-2.28-1,4.13,4.13,0,0,0,.48-1.16c.22-.86.24-2.38-.81-2.7a1.78,1.78,0,0,0-2,1.48,3.25,3.25,0,0,0,.84,2.41c-.59.37-1.38,0-2.15-.38a2.28,2.28,0,0,0,0-2.4c-1.32-1.67-2.95.89-1.67,2.33l.21.21a2.51,2.51,0,0,1-2-.18,5.59,5.59,0,0,1-.94-.86c.43-1,.4-2-.58-2.36a1.1,1.1,0,0,0-1.56.87A2.18,2.18,0,0,0,24.84,48a1.94,1.94,0,0,1-2.32.89l-.26-.09a3.41,3.41,0,0,0,.34-2.14.52.52,0,0,0-.49-.37c-1.5,0-1.58,1.27-1,2.36a3.72,3.72,0,0,1-.24.35,5.42,5.42,0,0,1-2.56,1.64,2.38,2.38,0,0,0,.16-1.19c-.32-2.56-4.16-.82-1.93,1.19A2.74,2.74,0,0,0,17,51a10.62,10.62,0,0,1-1.84.27,13.44,13.44,0,0,1-1.69-.13c.5-.73.47-1.61-.68-2.5-1.92-1.49-3.06,1.47-1.29,2.88a6.63,6.63,0,0,1-3.84-.13L6.41,51c1.41-1.18.43-3.53-1.13-2.4a1.58,1.58,0,0,0-.24,2c-1.65-.54-2.56-1.31-2.12-3.35.77.78,1.74,1,2.56,0A1.73,1.73,0,0,0,5.4,45c-.9-.89-2-.37-2.74.41a2,2,0,0,1-.06-2.07.4.4,0,0,0-.25-.56.5.5,0,0,0,.08-.26,14.14,14.14,0,0,1,.36-2l.3.23c.89.59,2.82.72,2.78-.84,0-1-1.11-1.25-1.95-1.13a2.61,2.61,0,0,0-1.13.45,1.79,1.79,0,0,1-.19-.48c-.14-.55-1-1.75-.84-2.61l.43-.94a1.75,1.75,0,0,1,.08-.56,5.23,5.23,0,0,0,1,.88c.95.59,2.63.64,2.68-.87,0-1.36-1.57-1.82-2.65-1.68a3.39,3.39,0,0,0-.85.25,1.39,1.39,0,0,1-.27-.38,2.85,2.85,0,0,1,0-1.89A6.37,6.37,0,0,1,2.59,30a2.89,2.89,0,0,0,.63.26c.84.22,2.34-.07,2.46-1.14s-1.31-1.68-2.12-1.57a2.14,2.14,0,0,0-1.24.77,6.13,6.13,0,0,1-.51-.85c-.64-1.16-1.26-3-.22-4.16.77.95,1.88,1.86,3.09,1.42a1.72,1.72,0,0,0,.75-2.78,3.7,3.7,0,0,0-3.78-.19h0a5.24,5.24,0,0,1-.54-2.7A4,4,0,0,1,2,17.83c2.05,2.21,4.66-.68,2.46-1.72a3.28,3.28,0,0,0-2.29,0l-.05-.07a2.6,2.6,0,0,1,.21-2.28c1.52,2.36,4.51.45,2.86-1.22A2.65,2.65,0,0,0,2.88,12,9.63,9.63,0,0,1,3,10.89,2.53,2.53,0,0,0,4,11.26c1.1.07,2.4-.82,2.08-2-.38-1.41-2-1-2.89-.37L3,9.05c-.55-.28-.5.11-.89-.66a3.58,3.58,0,0,1-.37-1.05H.67A5.77,5.77,0,0,0,2.1,10.18a3.5,3.5,0,0,0-.29,2.28l-.19.16c-.85.93-.83,2.66-.36,4A2.41,2.41,0,0,0,.75,17c-1.23,1.4-.62,3.9.21,5.37A4.19,4.19,0,0,0,0,25.59,7.45,7.45,0,0,0,1.7,29.23,6.55,6.55,0,0,0,1,31.83a3.78,3.78,0,0,0,.67,2,3.48,3.48,0,0,0-.87,2.32,5.63,5.63,0,0,0,1.38,3.77,4.87,4.87,0,0,0-.71,2.61.44.44,0,0,0,.29.44.76.76,0,0,0-.08.11,4,4,0,0,0,.44,3.07c-1.39,2.25.43,6.15,3.3,5.43l.25-.08A6.69,6.69,0,0,0,10,52.75,5.23,5.23,0,0,0,12.47,52c1.59.52,4.17.45,5.35-.72a4.16,4.16,0,0,0,3.95-1.73,2.31,2.31,0,0,0,1.33.7,3.46,3.46,0,0,0,2.51-1.62c.37.28.75.53,1,.71,1.07.66,2.29,1,3.31.1l.07-.06a3.22,3.22,0,0,0,3.51.26c1.38,1.12,3.35,1.7,4.7,1a2.16,2.16,0,0,0,1-1.45,3.48,3.48,0,0,0,.91-.14c.75.24,2.59-.44,2.31-.67a3.65,3.65,0,0,0,.45-.32,2.33,2.33,0,0,0,.92.32A3,3,0,0,0,47,46.16,3.52,3.52,0,0,0,47,45a3.21,3.21,0,0,0,1.58-3.4A13.35,13.35,0,0,0,47,38.15ZM3,22.62c2.85-.55-.39.43-.3.45a1,1,0,0,1-.47-.32Zm9.26,28.19h0c-.81-.83.46-1.76.31-.81A2.09,2.09,0,0,1,12.29,50.81Zm21.2-3.06s0,.09-.05.13a2.43,2.43,0,0,1-.3-1.68C33.9,46.61,34,47.13,33.49,47.75Z"/></svg>